<mxfile host="app.diagrams.net" modified="2024-07-22T06:36:36.578Z" agent="Mozilla/5.0 (Windows NT 10.0; Win64; x64) AppleWebKit/537.36 (KHTML, like Gecko) Chrome/126.0.0.0 Safari/537.36" etag="8944FNsN9_Q-SPsbvjhH" version="24.6.4" type="github">
  <diagram id="C5RBs43oDa-KdzZeNtuy" name="Page-1">
    <mxGraphModel dx="1687" dy="878" grid="1" gridSize="10" guides="1" tooltips="1" connect="1" arrows="1" fold="1" page="1" pageScale="1" pageWidth="827" pageHeight="1169" math="0" shadow="0">
      <root>
        <mxCell id="WIyWlLk6GJQsqaUBKTNV-0" />
        <mxCell id="WIyWlLk6GJQsqaUBKTNV-1" parent="WIyWlLk6GJQsqaUBKTNV-0" />
        <mxCell id="4FCDy1A044-bUuU5U0u9-6" style="edgeStyle=orthogonalEdgeStyle;rounded=0;orthogonalLoop=1;jettySize=auto;html=1;entryX=0.5;entryY=0;entryDx=0;entryDy=0;" edge="1" parent="WIyWlLk6GJQsqaUBKTNV-1" source="4FCDy1A044-bUuU5U0u9-3" target="4FCDy1A044-bUuU5U0u9-5">
          <mxGeometry relative="1" as="geometry" />
        </mxCell>
        <mxCell id="4FCDy1A044-bUuU5U0u9-3" value="患者&lt;div&gt;&lt;br&gt;&lt;/div&gt;" style="shape=umlActor;verticalLabelPosition=bottom;verticalAlign=top;html=1;outlineConnect=0;" vertex="1" parent="WIyWlLk6GJQsqaUBKTNV-1">
          <mxGeometry x="200" y="110" width="30" height="60" as="geometry" />
        </mxCell>
        <mxCell id="4FCDy1A044-bUuU5U0u9-12" style="edgeStyle=orthogonalEdgeStyle;rounded=0;orthogonalLoop=1;jettySize=auto;html=1;exitX=0.5;exitY=1;exitDx=0;exitDy=0;" edge="1" parent="WIyWlLk6GJQsqaUBKTNV-1" source="4FCDy1A044-bUuU5U0u9-5" target="4FCDy1A044-bUuU5U0u9-11">
          <mxGeometry relative="1" as="geometry" />
        </mxCell>
        <mxCell id="4FCDy1A044-bUuU5U0u9-19" value="缴费" style="edgeLabel;html=1;align=center;verticalAlign=middle;resizable=0;points=[];fontStyle=1" vertex="1" connectable="0" parent="4FCDy1A044-bUuU5U0u9-12">
          <mxGeometry x="-0.1" relative="1" as="geometry">
            <mxPoint as="offset" />
          </mxGeometry>
        </mxCell>
        <mxCell id="4FCDy1A044-bUuU5U0u9-38" style="edgeStyle=orthogonalEdgeStyle;rounded=0;orthogonalLoop=1;jettySize=auto;html=1;exitX=1;exitY=0.5;exitDx=0;exitDy=0;entryX=0.5;entryY=0;entryDx=0;entryDy=0;" edge="1" parent="WIyWlLk6GJQsqaUBKTNV-1" source="4FCDy1A044-bUuU5U0u9-5" target="4FCDy1A044-bUuU5U0u9-26">
          <mxGeometry relative="1" as="geometry">
            <Array as="points">
              <mxPoint x="470" y="260" />
            </Array>
          </mxGeometry>
        </mxCell>
        <mxCell id="4FCDy1A044-bUuU5U0u9-40" value="退药" style="edgeLabel;html=1;align=center;verticalAlign=middle;resizable=0;points=[];fontStyle=1" vertex="1" connectable="0" parent="4FCDy1A044-bUuU5U0u9-38">
          <mxGeometry x="0.6702" relative="1" as="geometry">
            <mxPoint as="offset" />
          </mxGeometry>
        </mxCell>
        <mxCell id="4FCDy1A044-bUuU5U0u9-39" style="edgeStyle=orthogonalEdgeStyle;rounded=0;orthogonalLoop=1;jettySize=auto;html=1;exitX=1;exitY=0.5;exitDx=0;exitDy=0;entryX=0.5;entryY=0;entryDx=0;entryDy=0;" edge="1" parent="WIyWlLk6GJQsqaUBKTNV-1" source="4FCDy1A044-bUuU5U0u9-5" target="4FCDy1A044-bUuU5U0u9-27">
          <mxGeometry relative="1" as="geometry" />
        </mxCell>
        <mxCell id="4FCDy1A044-bUuU5U0u9-41" value="&lt;b&gt;取消终端确认&lt;/b&gt;" style="edgeLabel;html=1;align=center;verticalAlign=middle;resizable=0;points=[];" vertex="1" connectable="0" parent="4FCDy1A044-bUuU5U0u9-39">
          <mxGeometry x="0.7888" y="1" relative="1" as="geometry">
            <mxPoint as="offset" />
          </mxGeometry>
        </mxCell>
        <mxCell id="4FCDy1A044-bUuU5U0u9-5" value="处方" style="rounded=0;whiteSpace=wrap;html=1;fillColor=#dae8fc;strokeColor=#6c8ebf;fontStyle=1" vertex="1" parent="WIyWlLk6GJQsqaUBKTNV-1">
          <mxGeometry x="155" y="230" width="120" height="60" as="geometry" />
        </mxCell>
        <mxCell id="4FCDy1A044-bUuU5U0u9-9" style="edgeStyle=orthogonalEdgeStyle;rounded=0;orthogonalLoop=1;jettySize=auto;html=1;entryX=0;entryY=0.5;entryDx=0;entryDy=0;" edge="1" parent="WIyWlLk6GJQsqaUBKTNV-1" source="4FCDy1A044-bUuU5U0u9-8" target="4FCDy1A044-bUuU5U0u9-5">
          <mxGeometry relative="1" as="geometry">
            <Array as="points">
              <mxPoint x="45" y="260" />
            </Array>
          </mxGeometry>
        </mxCell>
        <mxCell id="4FCDy1A044-bUuU5U0u9-23" value="&lt;b&gt;书写&lt;/b&gt;" style="edgeLabel;html=1;align=center;verticalAlign=middle;resizable=0;points=[];" vertex="1" connectable="0" parent="4FCDy1A044-bUuU5U0u9-9">
          <mxGeometry x="-0.45" y="1" relative="1" as="geometry">
            <mxPoint as="offset" />
          </mxGeometry>
        </mxCell>
        <mxCell id="4FCDy1A044-bUuU5U0u9-8" value="医生" style="shape=umlActor;verticalLabelPosition=bottom;verticalAlign=top;html=1;outlineConnect=0;" vertex="1" parent="WIyWlLk6GJQsqaUBKTNV-1">
          <mxGeometry x="30" y="110" width="30" height="60" as="geometry" />
        </mxCell>
        <mxCell id="4FCDy1A044-bUuU5U0u9-15" style="edgeStyle=orthogonalEdgeStyle;rounded=0;orthogonalLoop=1;jettySize=auto;html=1;exitX=0.5;exitY=1;exitDx=0;exitDy=0;entryX=0.5;entryY=0;entryDx=0;entryDy=0;" edge="1" parent="WIyWlLk6GJQsqaUBKTNV-1" source="4FCDy1A044-bUuU5U0u9-11" target="4FCDy1A044-bUuU5U0u9-13">
          <mxGeometry relative="1" as="geometry" />
        </mxCell>
        <mxCell id="4FCDy1A044-bUuU5U0u9-22" value="&lt;b&gt;取药确认&lt;/b&gt;" style="edgeLabel;html=1;align=center;verticalAlign=middle;resizable=0;points=[];" vertex="1" connectable="0" parent="4FCDy1A044-bUuU5U0u9-15">
          <mxGeometry x="0.6651" y="-1" relative="1" as="geometry">
            <mxPoint as="offset" />
          </mxGeometry>
        </mxCell>
        <mxCell id="4FCDy1A044-bUuU5U0u9-16" style="edgeStyle=orthogonalEdgeStyle;rounded=0;orthogonalLoop=1;jettySize=auto;html=1;exitX=0.5;exitY=1;exitDx=0;exitDy=0;entryX=0.5;entryY=0;entryDx=0;entryDy=0;" edge="1" parent="WIyWlLk6GJQsqaUBKTNV-1" source="4FCDy1A044-bUuU5U0u9-11" target="4FCDy1A044-bUuU5U0u9-14">
          <mxGeometry relative="1" as="geometry" />
        </mxCell>
        <mxCell id="4FCDy1A044-bUuU5U0u9-21" value="&lt;b&gt;终端确认&lt;/b&gt;" style="edgeLabel;html=1;align=center;verticalAlign=middle;resizable=0;points=[];" vertex="1" connectable="0" parent="4FCDy1A044-bUuU5U0u9-16">
          <mxGeometry x="0.6465" relative="1" as="geometry">
            <mxPoint as="offset" />
          </mxGeometry>
        </mxCell>
        <mxCell id="4FCDy1A044-bUuU5U0u9-11" value="收费处" style="rounded=1;whiteSpace=wrap;html=1;fillColor=#fff2cc;strokeColor=#d6b656;fontStyle=1" vertex="1" parent="WIyWlLk6GJQsqaUBKTNV-1">
          <mxGeometry x="155" y="350" width="120" height="60" as="geometry" />
        </mxCell>
        <mxCell id="4FCDy1A044-bUuU5U0u9-13" value="药房" style="rounded=1;whiteSpace=wrap;html=1;fontStyle=1" vertex="1" parent="WIyWlLk6GJQsqaUBKTNV-1">
          <mxGeometry x="80" y="550" width="120" height="60" as="geometry" />
        </mxCell>
        <mxCell id="4FCDy1A044-bUuU5U0u9-14" value="检验/检查科室" style="rounded=1;whiteSpace=wrap;html=1;fontStyle=1" vertex="1" parent="WIyWlLk6GJQsqaUBKTNV-1">
          <mxGeometry x="230" y="550" width="120" height="60" as="geometry" />
        </mxCell>
        <mxCell id="4FCDy1A044-bUuU5U0u9-33" style="edgeStyle=orthogonalEdgeStyle;rounded=0;orthogonalLoop=1;jettySize=auto;html=1;exitX=0.5;exitY=1;exitDx=0;exitDy=0;entryX=0;entryY=0.5;entryDx=0;entryDy=0;" edge="1" parent="WIyWlLk6GJQsqaUBKTNV-1" source="4FCDy1A044-bUuU5U0u9-26" target="4FCDy1A044-bUuU5U0u9-32">
          <mxGeometry relative="1" as="geometry" />
        </mxCell>
        <mxCell id="4FCDy1A044-bUuU5U0u9-26" value="药房" style="rounded=1;whiteSpace=wrap;html=1;fontStyle=1" vertex="1" parent="WIyWlLk6GJQsqaUBKTNV-1">
          <mxGeometry x="410" y="350" width="120" height="60" as="geometry" />
        </mxCell>
        <mxCell id="4FCDy1A044-bUuU5U0u9-34" style="edgeStyle=orthogonalEdgeStyle;rounded=0;orthogonalLoop=1;jettySize=auto;html=1;exitX=0.5;exitY=1;exitDx=0;exitDy=0;entryX=1;entryY=0.5;entryDx=0;entryDy=0;" edge="1" parent="WIyWlLk6GJQsqaUBKTNV-1" source="4FCDy1A044-bUuU5U0u9-27" target="4FCDy1A044-bUuU5U0u9-32">
          <mxGeometry relative="1" as="geometry" />
        </mxCell>
        <mxCell id="4FCDy1A044-bUuU5U0u9-27" value="检验/检查科室" style="rounded=1;whiteSpace=wrap;html=1;fontStyle=1" vertex="1" parent="WIyWlLk6GJQsqaUBKTNV-1">
          <mxGeometry x="570" y="350" width="120" height="60" as="geometry" />
        </mxCell>
        <mxCell id="4FCDy1A044-bUuU5U0u9-36" value="" style="edgeStyle=orthogonalEdgeStyle;rounded=0;orthogonalLoop=1;jettySize=auto;html=1;" edge="1" parent="WIyWlLk6GJQsqaUBKTNV-1" source="4FCDy1A044-bUuU5U0u9-32" target="4FCDy1A044-bUuU5U0u9-35">
          <mxGeometry relative="1" as="geometry" />
        </mxCell>
        <mxCell id="4FCDy1A044-bUuU5U0u9-32" value="收费处" style="rounded=1;whiteSpace=wrap;html=1;fillColor=#fff2cc;strokeColor=#d6b656;fontStyle=1" vertex="1" parent="WIyWlLk6GJQsqaUBKTNV-1">
          <mxGeometry x="490" y="470" width="120" height="60" as="geometry" />
        </mxCell>
        <mxCell id="4FCDy1A044-bUuU5U0u9-46" value="" style="edgeStyle=orthogonalEdgeStyle;rounded=0;orthogonalLoop=1;jettySize=auto;html=1;" edge="1" parent="WIyWlLk6GJQsqaUBKTNV-1" source="4FCDy1A044-bUuU5U0u9-35" target="4FCDy1A044-bUuU5U0u9-45">
          <mxGeometry relative="1" as="geometry" />
        </mxCell>
        <mxCell id="4FCDy1A044-bUuU5U0u9-47" value="是" style="edgeLabel;html=1;align=center;verticalAlign=middle;resizable=0;points=[];" vertex="1" connectable="0" parent="4FCDy1A044-bUuU5U0u9-46">
          <mxGeometry x="-0.075" relative="1" as="geometry">
            <mxPoint as="offset" />
          </mxGeometry>
        </mxCell>
        <mxCell id="4FCDy1A044-bUuU5U0u9-49" value="" style="edgeStyle=orthogonalEdgeStyle;rounded=0;orthogonalLoop=1;jettySize=auto;html=1;" edge="1" parent="WIyWlLk6GJQsqaUBKTNV-1" source="4FCDy1A044-bUuU5U0u9-35" target="4FCDy1A044-bUuU5U0u9-48">
          <mxGeometry relative="1" as="geometry" />
        </mxCell>
        <mxCell id="4FCDy1A044-bUuU5U0u9-50" value="&lt;b&gt;否&lt;/b&gt;" style="edgeLabel;html=1;align=center;verticalAlign=middle;resizable=0;points=[];" vertex="1" connectable="0" parent="4FCDy1A044-bUuU5U0u9-49">
          <mxGeometry x="-0.06" y="1" relative="1" as="geometry">
            <mxPoint as="offset" />
          </mxGeometry>
        </mxCell>
        <mxCell id="4FCDy1A044-bUuU5U0u9-35" value="&lt;b&gt;是否医保&lt;/b&gt;" style="rhombus;whiteSpace=wrap;html=1;rounded=1;" vertex="1" parent="WIyWlLk6GJQsqaUBKTNV-1">
          <mxGeometry x="510" y="600" width="80" height="80" as="geometry" />
        </mxCell>
        <mxCell id="4FCDy1A044-bUuU5U0u9-52" value="" style="edgeStyle=orthogonalEdgeStyle;rounded=0;orthogonalLoop=1;jettySize=auto;html=1;" edge="1" parent="WIyWlLk6GJQsqaUBKTNV-1" source="4FCDy1A044-bUuU5U0u9-45" target="4FCDy1A044-bUuU5U0u9-51">
          <mxGeometry relative="1" as="geometry" />
        </mxCell>
        <mxCell id="4FCDy1A044-bUuU5U0u9-56" value="&lt;b&gt;否&lt;/b&gt;" style="edgeLabel;html=1;align=center;verticalAlign=middle;resizable=0;points=[];" vertex="1" connectable="0" parent="4FCDy1A044-bUuU5U0u9-52">
          <mxGeometry x="-0.0667" y="1" relative="1" as="geometry">
            <mxPoint as="offset" />
          </mxGeometry>
        </mxCell>
        <mxCell id="4FCDy1A044-bUuU5U0u9-54" value="" style="edgeStyle=orthogonalEdgeStyle;rounded=0;orthogonalLoop=1;jettySize=auto;html=1;" edge="1" parent="WIyWlLk6GJQsqaUBKTNV-1" source="4FCDy1A044-bUuU5U0u9-45" target="4FCDy1A044-bUuU5U0u9-53">
          <mxGeometry relative="1" as="geometry" />
        </mxCell>
        <mxCell id="4FCDy1A044-bUuU5U0u9-55" value="&lt;b&gt;是&lt;/b&gt;" style="edgeLabel;html=1;align=center;verticalAlign=middle;resizable=0;points=[];" vertex="1" connectable="0" parent="4FCDy1A044-bUuU5U0u9-54">
          <mxGeometry x="-0.16" relative="1" as="geometry">
            <mxPoint as="offset" />
          </mxGeometry>
        </mxCell>
        <mxCell id="4FCDy1A044-bUuU5U0u9-45" value="&lt;b&gt;是否本年最后一笔&lt;/b&gt;" style="rhombus;whiteSpace=wrap;html=1;rounded=1;" vertex="1" parent="WIyWlLk6GJQsqaUBKTNV-1">
          <mxGeometry x="510" y="760" width="80" height="80" as="geometry" />
        </mxCell>
        <mxCell id="4FCDy1A044-bUuU5U0u9-48" value="&lt;b&gt;按照发票号退费&lt;/b&gt;" style="whiteSpace=wrap;html=1;rounded=1;" vertex="1" parent="WIyWlLk6GJQsqaUBKTNV-1">
          <mxGeometry x="690" y="610" width="120" height="60" as="geometry" />
        </mxCell>
        <mxCell id="4FCDy1A044-bUuU5U0u9-57" style="edgeStyle=orthogonalEdgeStyle;rounded=0;orthogonalLoop=1;jettySize=auto;html=1;exitX=0;exitY=0.5;exitDx=0;exitDy=0;entryX=0;entryY=0.5;entryDx=0;entryDy=0;" edge="1" parent="WIyWlLk6GJQsqaUBKTNV-1" source="4FCDy1A044-bUuU5U0u9-51" target="4FCDy1A044-bUuU5U0u9-45">
          <mxGeometry relative="1" as="geometry" />
        </mxCell>
        <mxCell id="4FCDy1A044-bUuU5U0u9-51" value="&lt;b&gt;先退最后一笔&lt;/b&gt;" style="whiteSpace=wrap;html=1;rounded=1;" vertex="1" parent="WIyWlLk6GJQsqaUBKTNV-1">
          <mxGeometry x="490" y="930" width="120" height="60" as="geometry" />
        </mxCell>
        <mxCell id="4FCDy1A044-bUuU5U0u9-53" value="&lt;b&gt;按照发票号退费&lt;/b&gt;" style="whiteSpace=wrap;html=1;rounded=1;" vertex="1" parent="WIyWlLk6GJQsqaUBKTNV-1">
          <mxGeometry x="690" y="770" width="120" height="60" as="geometry" />
        </mxCell>
      </root>
    </mxGraphModel>
  </diagram>
</mxfile>
